<svg version="1.1" id="Layer_1" xmlns="http://www.w3.org/2000/svg" xmlns:xlink="http://www.w3.org/1999/xlink" x="10px" y="10px"
	 width="100%" viewBox="0 0 200 200" enable-background="new 0 0 200 200" xml:space="preserve">
<path fill="#2F3338" opacity="1.000000" stroke="none" 
	d="
M117.000000,201.000000 
	C78.024071,201.000000 39.548149,201.000000 1.036112,201.000000 
	C1.036112,134.399109 1.036112,67.798203 1.036112,1.098643 
	C67.559090,1.098643 134.118378,1.098643 200.838837,1.098643 
	C200.838837,67.666351 200.838837,134.333145 200.838837,201.000000 
	C173.131821,201.000000 145.315903,201.000000 117.000000,201.000000 
M141.080460,32.400009 
	C123.871750,21.736687 105.184410,18.147556 85.530342,22.546675 
	C56.893581,28.956366 37.369530,46.479950 28.939547,74.564934 
	C20.582619,102.406540 26.739363,127.833351 47.164238,148.707001 
	C53.413616,155.093689 58.464577,160.690445 56.590786,170.074387 
	C56.509411,170.481888 56.906475,170.984940 57.315327,172.061188 
	C63.165096,172.061188 69.204811,172.061188 75.230286,172.061188 
	C75.437508,175.439163 75.605591,178.179230 75.770538,180.868042 
	C92.900887,180.868042 109.481056,180.868042 126.256363,180.868042 
	C126.451378,177.815750 126.627586,175.057800 126.831749,171.862213 
	C133.026321,171.862213 138.957031,171.862213 145.510818,171.862213 
	C145.510818,168.121414 145.883209,164.779404 145.404541,161.564102 
	C144.939529,158.440353 146.122894,156.786163 148.392975,154.916870 
	C188.506256,121.885643 185.161911,61.628613 141.080460,32.400009 
z"/>
<path fill="#E1FA01" opacity="1.000000" stroke="none" 
	d="
M141.382980,32.602547 
	C185.161911,61.628613 188.506256,121.885643 148.392975,154.916870 
	C146.122894,156.786163 144.939529,158.440353 145.404541,161.564102 
	C145.883209,164.779404 145.510818,168.121414 145.510818,171.862213 
	C138.957031,171.862213 133.026321,171.862213 126.831749,171.862213 
	C126.627586,175.057800 126.451378,177.815750 126.256363,180.868042 
	C109.481056,180.868042 92.900887,180.868042 75.770538,180.868042 
	C75.605591,178.179230 75.437508,175.439163 75.230286,172.061188 
	C69.204811,172.061188 63.165096,172.061188 57.315327,172.061188 
	C56.906475,170.984940 56.509411,170.481888 56.590786,170.074387 
	C58.464577,160.690445 53.413616,155.093689 47.164238,148.707001 
	C26.739363,127.833351 20.582619,102.406540 28.939547,74.564934 
	C37.369530,46.479950 56.893581,28.956366 85.530342,22.546675 
	C105.184410,18.147556 123.871750,21.736687 141.382980,32.602547 
M92.064056,66.523750 
	C87.608879,68.406296 83.153709,70.288841 78.134018,72.409927 
	C79.068069,84.419083 71.868065,89.746620 59.601791,89.832535 
	C59.601791,92.899467 59.224396,95.459991 59.740974,97.825279 
	C60.059330,99.282928 61.489697,100.910347 62.859039,101.648079 
	C66.884995,103.817017 71.129807,105.579712 76.957207,108.272301 
	C85.498772,106.305382 89.759926,107.592979 98.059700,115.484848 
	C98.986816,116.366394 100.689720,116.982292 101.944160,116.854019 
	C104.502235,116.592445 110.474846,108.326324 110.486443,105.545944 
	C110.541611,92.318916 120.649605,82.123657 133.836716,81.994293 
	C136.168930,81.971420 138.516586,82.112411 140.830124,81.893036 
	C145.648834,81.436119 148.635117,78.114601 148.447250,73.678383 
	C148.272110,69.543266 145.179031,66.532188 140.572708,66.212746 
	C137.917892,66.028641 135.232056,66.247368 132.584595,66.011177 
	C126.790642,65.494263 121.796852,61.271549 120.266594,55.818233 
	C118.742165,50.385654 120.932724,44.262028 125.655647,40.751293 
	C126.903992,39.823345 128.151047,38.893654 129.535843,37.862656 
	C114.024536,26.653173 80.280830,28.019451 64.206238,42.490906 
	C70.255203,42.490906 75.693405,42.519646 81.131180,42.483204 
	C87.136017,42.442963 91.982300,44.693726 94.670364,50.158325 
	C97.413704,55.735310 96.666084,61.151993 92.064056,66.523750 
M66.217369,139.393585 
	C62.113129,132.726395 61.090008,125.793221 64.519203,118.528641 
	C67.060120,113.145844 66.577408,112.097992 60.839607,110.967514 
	C55.094322,109.835556 50.669415,105.576271 50.316639,99.839676 
	C49.921814,93.419357 50.225990,86.956047 50.225990,80.708199 
	C50.942558,80.369537 51.226849,80.121231 51.515453,80.116119 
	C55.006626,80.054161 58.498699,80.044762 61.990013,79.988785 
	C67.178223,79.905617 68.721336,78.371750 68.809196,73.087212 
	C68.872162,69.300262 68.821442,65.511421 68.821442,61.158478 
	C72.925789,61.158478 76.542183,61.071564 80.152435,61.183186 
	C83.686531,61.292450 86.853516,60.589699 86.761086,56.381142 
	C86.676628,52.534897 83.616615,51.810543 80.309303,51.831448 
	C72.821739,51.878780 65.314995,52.161747 57.852859,51.722946 
	C53.457165,51.464462 50.706108,53.040352 48.286118,56.415680 
	C35.926926,73.653893 31.900246,92.583733 37.160172,113.150581 
	C40.700577,126.993927 48.177311,138.493179 59.453110,147.470459 
	C61.825951,144.809250 63.914394,142.466980 66.217369,139.393585 
M156.305222,60.261868 
	C151.803589,53.396793 146.330673,47.493404 139.241302,42.632645 
	C138.647873,44.502022 138.183975,45.963333 137.690414,47.518150 
	C136.582306,47.518150 135.754135,47.527851 134.926254,47.516441 
	C131.617676,47.470848 129.149704,48.842880 129.311768,52.345261 
	C129.472855,55.826160 132.141861,56.886272 135.353653,56.841389 
	C137.516403,56.811169 139.688980,56.829514 141.843781,56.997635 
	C151.245285,57.731144 158.284637,65.464317 157.972092,74.640282 
	C157.664490,83.671417 150.445618,90.754013 141.193909,91.174629 
	C137.548462,91.340363 133.811310,91.199974 130.287750,91.977592 
	C123.080719,93.568123 119.107956,100.165443 120.552711,107.300430 
	C136.801376,109.499016 144.639053,124.463402 135.766266,139.765717 
	C137.984512,142.292130 140.232971,144.852966 142.464554,147.394592 
	C168.425095,127.677338 174.450714,90.590347 156.305222,60.261868 
M95.536240,171.842712 
	C102.629669,171.842712 109.723099,171.842712 117.206131,171.842712 
	C117.066864,169.583145 117.134789,167.918869 116.836853,166.322876 
	C115.436607,158.822037 110.905678,155.550781 103.448708,156.295792 
	C101.330841,156.507385 99.009262,156.633957 97.042809,155.994629 
	C93.124680,154.720734 90.295074,156.288315 88.621880,159.293579 
	C86.625595,162.879105 85.476547,166.936356 83.545944,171.842712 
	C88.323906,171.842712 91.438316,171.842712 95.536240,171.842712 
M93.879318,129.311371 
	C88.169464,136.617432 90.916031,145.664810 99.240204,146.970459 
	C103.944359,147.708313 108.448364,145.477631 110.287758,141.204224 
	C112.163780,136.845718 111.590958,132.748413 108.116508,129.330200 
	C104.502449,125.774643 99.833298,125.634186 93.879318,129.311371 
M84.838623,117.315712 
	C77.395699,116.626457 72.461899,120.090050 71.937141,126.372696 
	C71.441795,132.303268 74.858711,136.437149 79.568657,136.921280 
	C82.625832,130.938004 85.484322,125.343605 88.560974,119.322205 
	C88.092232,119.055962 86.836021,118.342445 84.838623,117.315712 
M113.075417,119.655327 
	C116.217087,125.343170 119.358749,131.031021 122.791466,137.245804 
	C126.051369,136.784607 128.778229,134.073914 129.822495,129.882339 
	C130.873383,125.664154 129.627029,121.889809 126.098679,119.224907 
	C122.048294,116.165733 117.805443,116.221329 113.075417,119.655327 
M66.533821,156.301468 
	C66.341721,158.210846 66.149612,160.120224 65.852654,163.071869 
	C69.991165,162.424515 74.526016,163.056213 76.598900,161.091003 
	C80.110184,157.762146 82.066597,152.793213 84.653076,148.552338 
	C74.737312,145.057114 71.714813,144.214050 66.533821,156.301468 
M118.371658,150.928940 
	C119.912552,152.855286 121.682404,154.642670 122.951637,156.733902 
	C126.838997,163.138824 127.979675,163.672150 136.284424,161.686722 
	C135.794754,159.168518 135.648834,156.490952 134.739899,154.103943 
	C131.979355,146.854279 125.312347,144.156921 118.439323,147.420624 
	C117.888680,147.682098 118.017159,149.373764 118.371658,150.928940 
z"/>
<path fill="#303537" opacity="1.000000" stroke="none" 
	d="
M92.321686,66.250671 
	C96.666084,61.151993 97.413704,55.735310 94.670364,50.158325 
	C91.982300,44.693726 87.136017,42.442963 81.131180,42.483204 
	C75.693405,42.519646 70.255203,42.490906 64.206238,42.490906 
	C80.280830,28.019451 114.024536,26.653173 129.535843,37.862656 
	C128.151047,38.893654 126.903992,39.823345 125.655647,40.751293 
	C120.932724,44.262028 118.742165,50.385654 120.266594,55.818233 
	C121.796852,61.271549 126.790642,65.494263 132.584595,66.011177 
	C135.232056,66.247368 137.917892,66.028641 140.572708,66.212746 
	C145.179031,66.532188 148.272110,69.543266 148.447250,73.678383 
	C148.635117,78.114601 145.648834,81.436119 140.830124,81.893036 
	C138.516586,82.112411 136.168930,81.971420 133.836716,81.994293 
	C120.649605,82.123657 110.541611,92.318916 110.486443,105.545944 
	C110.474846,108.326324 104.502235,116.592445 101.944160,116.854019 
	C100.689720,116.982292 98.986816,116.366394 98.059700,115.484848 
	C89.759926,107.592979 85.498772,106.305382 76.957207,108.272301 
	C71.129807,105.579712 66.884995,103.817017 62.859039,101.648079 
	C61.489697,100.910347 60.059330,99.282928 59.740974,97.825279 
	C59.224396,95.459991 59.601791,92.899467 59.601791,89.832535 
	C71.868065,89.746620 79.068069,84.419083 78.134018,72.409927 
	C83.153709,70.288841 87.608879,68.406296 92.321686,66.250671 
z"/>
<path fill="#303437" opacity="1.000000" stroke="none" 
	d="
M66.110107,139.759155 
	C63.914394,142.466980 61.825951,144.809250 59.453110,147.470459 
	C48.177311,138.493179 40.700577,126.993927 37.160172,113.150581 
	C31.900246,92.583733 35.926926,73.653893 48.286118,56.415680 
	C50.706108,53.040352 53.457165,51.464462 57.852859,51.722946 
	C65.314995,52.161747 72.821739,51.878780 80.309303,51.831448 
	C83.616615,51.810543 86.676628,52.534897 86.761086,56.381142 
	C86.853516,60.589699 83.686531,61.292450 80.152435,61.183186 
	C76.542183,61.071564 72.925789,61.158478 68.821442,61.158478 
	C68.821442,65.511421 68.872162,69.300262 68.809196,73.087212 
	C68.721336,78.371750 67.178223,79.905617 61.990013,79.988785 
	C58.498699,80.044762 55.006626,80.054161 51.515453,80.116119 
	C51.226849,80.121231 50.942558,80.369537 50.225990,80.708199 
	C50.225990,86.956047 49.921814,93.419357 50.316639,99.839676 
	C50.669415,105.576271 55.094322,109.835556 60.839607,110.967514 
	C66.577408,112.097992 67.060120,113.145844 64.519203,118.528641 
	C61.090008,125.793221 62.113129,132.726395 66.110107,139.759155 
z"/>
<path fill="#313537" opacity="1.000000" stroke="none" 
	d="
M156.520355,60.556625 
	C174.450714,90.590347 168.425095,127.677338 142.464554,147.394592 
	C140.232971,144.852966 137.984512,142.292130 135.766266,139.765717 
	C144.639053,124.463402 136.801376,109.499016 120.552711,107.300430 
	C119.107956,100.165443 123.080719,93.568123 130.287750,91.977592 
	C133.811310,91.199974 137.548462,91.340363 141.193909,91.174629 
	C150.445618,90.754013 157.664490,83.671417 157.972092,74.640282 
	C158.284637,65.464317 151.245285,57.731144 141.843781,56.997635 
	C139.688980,56.829514 137.516403,56.811169 135.353653,56.841389 
	C132.141861,56.886272 129.472855,55.826160 129.311768,52.345261 
	C129.149704,48.842880 131.617676,47.470848 134.926254,47.516441 
	C135.754135,47.527851 136.582306,47.518150 137.690414,47.518150 
	C138.183975,45.963333 138.647873,44.502022 139.241302,42.632645 
	C146.330673,47.493404 151.803589,53.396793 156.520355,60.556625 
z"/>
<path fill="#353A36" opacity="1.000000" stroke="none" 
	d="
M95.044487,171.842712 
	C91.438316,171.842712 88.323906,171.842712 83.545944,171.842712 
	C85.476547,166.936356 86.625595,162.879105 88.621880,159.293579 
	C90.295074,156.288315 93.124680,154.720734 97.042809,155.994629 
	C99.009262,156.633957 101.330841,156.507385 103.448708,156.295792 
	C110.905678,155.550781 115.436607,158.822037 116.836853,166.322876 
	C117.134789,167.918869 117.066864,169.583145 117.206131,171.842712 
	C109.723099,171.842712 102.629669,171.842712 95.044487,171.842712 
z"/>
<path fill="#313537" opacity="1.000000" stroke="none" 
	d="
M94.182220,129.050415 
	C99.833298,125.634186 104.502449,125.774643 108.116508,129.330200 
	C111.590958,132.748413 112.163780,136.845718 110.287758,141.204224 
	C108.448364,145.477631 103.944359,147.708313 99.240204,146.970459 
	C90.916031,145.664810 88.169464,136.617432 94.182220,129.050415 
z"/>
<path fill="#343936" opacity="1.000000" stroke="none" 
	d="
M85.209213,117.472321 
	C86.836021,118.342445 88.092232,119.055962 88.560974,119.322205 
	C85.484322,125.343605 82.625832,130.938004 79.568657,136.921280 
	C74.858711,136.437149 71.441795,132.303268 71.937141,126.372696 
	C72.461899,120.090050 77.395699,116.626457 85.209213,117.472321 
z"/>
<path fill="#343936" opacity="1.000000" stroke="none" 
	d="
M113.342987,119.372009 
	C117.805443,116.221329 122.048294,116.165733 126.098679,119.224907 
	C129.627029,121.889809 130.873383,125.664154 129.822495,129.882339 
	C128.778229,134.073914 126.051369,136.784607 122.791466,137.245804 
	C119.358749,131.031021 116.217087,125.343170 113.342987,119.372009 
z"/>
<path fill="#383D35" opacity="1.000000" stroke="none" 
	d="
M66.641113,155.916122 
	C71.714813,144.214050 74.737312,145.057114 84.653076,148.552338 
	C82.066597,152.793213 80.110184,157.762146 76.598900,161.091003 
	C74.526016,163.056213 69.991165,162.424515 65.852654,163.071869 
	C66.149612,160.120224 66.341721,158.210846 66.641113,155.916122 
z"/>
<path fill="#383D35" opacity="1.000000" stroke="none" 
	d="
M118.100845,150.664886 
	C118.017159,149.373764 117.888680,147.682098 118.439323,147.420624 
	C125.312347,144.156921 131.979355,146.854279 134.739899,154.103943 
	C135.648834,156.490952 135.794754,159.168518 136.284424,161.686722 
	C127.979675,163.672150 126.838997,163.138824 122.951637,156.733902 
	C121.682404,154.642670 119.912552,152.855286 118.100845,150.664886 
z"/>
</svg>