<svg xmlns="http://www.w3.org/2000/svg"  viewBox="0 0 100 100" width="200px" height="200px"><path d="M 29 18 A 1.0001 1.0001 0 0 0 28 19 L 28 85 A 1.0001 1.0001 0 0 0 29.53125 85.847656 L 50 73.042969 L 70.46875 85.847656 A 1.0001 1.0001 0 0 0 72 85 L 72 19 A 1.0001 1.0001 0 0 0 71 18 L 29 18 z M 30 20 L 70 20 L 70 83.195312 L 50.53125 71.015625 A 1.0001 1.0001 0 0 0 49.46875 71.015625 L 30 83.195312 L 30 20 z M 41.5 22 A 0.50005 0.50005 0 1 0 41.5 23 L 67 23 L 67 34.5 A 0.50005 0.50005 0 1 0 68 34.5 L 68 22.5 A 0.50005 0.50005 0 0 0 67.5 22 L 41.5 22 z M 32.492188 26.992188 A 0.50005 0.50005 0 0 0 32 27.5 L 32 78.679688 A 0.50005 0.50005 0 0 0 32.765625 79.103516 L 36.765625 76.603516 A 0.5001872 0.5001872 0 0 0 36.234375 75.755859 L 33 77.777344 L 33 27.5 A 0.50005 0.50005 0 0 0 32.492188 26.992188 z M 50 28 C 47.431629 28 45.062217 28.883436 43.189453 30.361328 A 0.50005 0.50005 0 1 0 43.810547 31.144531 C 45.513783 29.800423 47.660371 29 50 29 C 55.528781 29 60 33.471219 60 39 C 60 44.528781 55.528781 49 50 49 C 44.471219 49 40 44.528781 40 39 C 40 37.113303 40.521097 35.352369 41.427734 33.847656 A 0.50005 0.50005 0 1 0 40.572266 33.330078 C 39.574903 34.985365 39 36.928697 39 39 C 39 45.069219 43.930781 50 50 50 C 56.069219 50 61 45.069219 61 39 C 61 32.930781 56.069219 28 50 28 z M 50.001953 33.042969 C 49.713068 33.042969 49.42374 33.185724 49.279297 33.474609 A 0.50005 0.50005 0 0 0 49.273438 33.486328 L 47.859375 36.488281 L 44.691406 36.964844 A 0.50005 0.50005 0 0 0 44.675781 36.96875 C 44.394738 37.01985 44.136858 37.25157 44.042969 37.509766 A 0.50005 0.50005 0 0 0 44.033203 37.537109 C 43.942203 37.840432 44.007803 38.124993 44.236328 38.353516 L 46.541016 40.697266 L 46 44.001953 C 45.94652 44.296114 46.06394 44.615918 46.306641 44.804688 A 0.50005 0.50005 0 0 0 46.3125 44.810547 C 46.571167 45.004547 46.887106 45.02952 47.175781 44.869141 A 0.50005 0.50005 0 0 0 47.025391 43.935547 L 47.568359 40.609375 A 0.50005 0.50005 0 0 0 47.431641 40.177734 L 45.195312 37.902344 L 48.271484 37.4375 A 0.50005 0.50005 0 0 0 48.648438 37.15625 L 50 34.287109 L 51.353516 37.15625 A 0.50005 0.50005 0 0 0 51.730469 37.4375 L 54.806641 37.902344 L 52.570312 40.177734 A 0.50005 0.50005 0 0 0 52.433594 40.609375 L 52.955078 43.798828 L 50.240234 42.310547 A 0.50083062 0.50083062 0 0 0 49.759766 43.189453 L 52.830078 44.871094 A 0.50005 0.50005 0 0 0 52.845703 44.878906 C 52.979146 44.945626 53.085557 44.964844 53.212891 44.964844 C 53.325957 44.964844 53.524376 44.932534 53.705078 44.777344 C 53.931311 44.586546 54.05363 44.286177 54.001953 44.001953 L 53.460938 40.697266 L 55.765625 38.353516 C 55.994148 38.124993 56.059747 37.840432 55.96875 37.537109 A 0.50005 0.50005 0 0 0 55.958984 37.509766 C 55.865124 37.251577 55.607215 37.019849 55.326172 36.96875 A 0.50005 0.50005 0 0 0 55.310547 36.964844 L 52.142578 36.488281 L 50.728516 33.486328 A 0.50005 0.50005 0 0 0 50.722656 33.474609 C 50.578214 33.185724 50.290839 33.042969 50.001953 33.042969 z M 67.492188 36.992188 A 0.50005 0.50005 0 0 0 67 37.5 L 67 38.5 A 0.50005 0.50005 0 1 0 68 38.5 L 68 37.5 A 0.50005 0.50005 0 0 0 67.492188 36.992188 z M 67.492188 40.992188 A 0.50005 0.50005 0 0 0 67 41.5 L 67 44.5 A 0.50005 0.50005 0 1 0 68 44.5 L 68 41.5 A 0.50005 0.50005 0 0 0 67.492188 40.992188 z M 67.492188 46.992188 A 0.50005 0.50005 0 0 0 67 47.5 L 67 77.777344 L 50.265625 67.316406 A 0.50005 0.50005 0 0 0 49.734375 67.316406 L 42.234375 72.005859 A 0.5001872 0.5001872 0 0 0 42.765625 72.853516 L 50 68.330078 L 67.234375 79.103516 A 0.50005 0.50005 0 0 0 68 78.679688 L 68 47.5 A 0.50005 0.50005 0 0 0 67.492188 46.992188 z"/></svg>